<?xml version="1.0" standalone="no"?>
<svg xmlns:xlink="http://www.w3.org/1999/xlink" id="wave" style="transform:rotate(0deg); transition: 0.3s" viewBox="0 0 1440 300" version="1.1" xmlns="http://www.w3.org/2000/svg"><defs><linearGradient id="sw-gradient-0" x1="0" x2="0" y1="1" y2="0"><stop stop-color="rgba(255, 139, 167, 1)" offset="0%"/><stop stop-color="rgba(255, 179, 11, 1)" offset="100%"/></linearGradient></defs><path style="transform:translate(0, 0px); opacity:1" fill="url(#sw-gradient-0)" d="M0,120L30,125C60,130,120,140,180,125C240,110,300,70,360,85C420,100,480,170,540,200C600,230,660,220,720,195C780,170,840,130,900,110C960,90,1020,90,1080,80C1140,70,1200,50,1260,40C1320,30,1380,30,1440,35C1500,40,1560,50,1620,70C1680,90,1740,120,1800,135C1860,150,1920,150,1980,170C2040,190,2100,230,2160,250C2220,270,2280,270,2340,250C2400,230,2460,190,2520,155C2580,120,2640,90,2700,85C2760,80,2820,100,2880,130C2940,160,3000,200,3060,220C3120,240,3180,240,3240,225C3300,210,3360,180,3420,160C3480,140,3540,130,3600,105C3660,80,3720,40,3780,55C3840,70,3900,140,3960,180C4020,220,4080,230,4140,200C4200,170,4260,100,4290,65L4320,30L4320,300L4290,300C4260,300,4200,300,4140,300C4080,300,4020,300,3960,300C3900,300,3840,300,3780,300C3720,300,3660,300,3600,300C3540,300,3480,300,3420,300C3360,300,3300,300,3240,300C3180,300,3120,300,3060,300C3000,300,2940,300,2880,300C2820,300,2760,300,2700,300C2640,300,2580,300,2520,300C2460,300,2400,300,2340,300C2280,300,2220,300,2160,300C2100,300,2040,300,1980,300C1920,300,1860,300,1800,300C1740,300,1680,300,1620,300C1560,300,1500,300,1440,300C1380,300,1320,300,1260,300C1200,300,1140,300,1080,300C1020,300,960,300,900,300C840,300,780,300,720,300C660,300,600,300,540,300C480,300,420,300,360,300C300,300,240,300,180,300C120,300,60,300,30,300L0,300Z"/><defs><linearGradient id="sw-gradient-1" x1="0" x2="0" y1="1" y2="0"><stop stop-color="rgba(243, 106, 62, 1)" offset="0%"/><stop stop-color="rgba(255, 139, 167, 1)" offset="100%"/></linearGradient></defs><path style="transform:translate(0, 50px); opacity:0.9" fill="url(#sw-gradient-1)" d="M0,90L30,80C60,70,120,50,180,50C240,50,300,70,360,80C420,90,480,90,540,105C600,120,660,150,720,170C780,190,840,200,900,210C960,220,1020,230,1080,230C1140,230,1200,220,1260,220C1320,220,1380,230,1440,235C1500,240,1560,240,1620,200C1680,160,1740,80,1800,50C1860,20,1920,40,1980,70C2040,100,2100,140,2160,170C2220,200,2280,220,2340,235C2400,250,2460,260,2520,230C2580,200,2640,130,2700,115C2760,100,2820,140,2880,165C2940,190,3000,200,3060,180C3120,160,3180,110,3240,95C3300,80,3360,100,3420,110C3480,120,3540,120,3600,145C3660,170,3720,220,3780,210C3840,200,3900,130,3960,90C4020,50,4080,40,4140,55C4200,70,4260,110,4290,130L4320,150L4320,300L4290,300C4260,300,4200,300,4140,300C4080,300,4020,300,3960,300C3900,300,3840,300,3780,300C3720,300,3660,300,3600,300C3540,300,3480,300,3420,300C3360,300,3300,300,3240,300C3180,300,3120,300,3060,300C3000,300,2940,300,2880,300C2820,300,2760,300,2700,300C2640,300,2580,300,2520,300C2460,300,2400,300,2340,300C2280,300,2220,300,2160,300C2100,300,2040,300,1980,300C1920,300,1860,300,1800,300C1740,300,1680,300,1620,300C1560,300,1500,300,1440,300C1380,300,1320,300,1260,300C1200,300,1140,300,1080,300C1020,300,960,300,900,300C840,300,780,300,720,300C660,300,600,300,540,300C480,300,420,300,360,300C300,300,240,300,180,300C120,300,60,300,30,300L0,300Z"/></svg>